<svg width="32" height="38" viewBox="0 0 32 38" fill="none" xmlns="http://www.w3.org/2000/svg">
<path d="M14.1333 25.4125L23.5333 14.25L21.6667 12.0333L14.1333 20.9792L10.3333 16.4667L8.46667 18.6833L14.1333 25.4125ZM6.66667 33.25C5.93333 33.25 5.30533 32.9402 4.78267 32.3206C4.26089 31.6999 4 30.9542 4 30.0833V7.91667C4 7.04583 4.26089 6.30008 4.78267 5.67942C5.30533 5.05981 5.93333 4.75 6.66667 4.75H12.2667C12.5556 3.8 13.0391 3.03472 13.7173 2.45417C14.3947 1.87361 15.1556 1.58333 16 1.58333C16.8444 1.58333 17.6058 1.87361 18.284 2.45417C18.9613 3.03472 19.4444 3.8 19.7333 4.75H25.3333C26.0667 4.75 26.6947 5.05981 27.2173 5.67942C27.7391 6.30008 28 7.04583 28 7.91667V30.0833C28 30.9542 27.7391 31.6999 27.2173 32.3206C26.6947 32.9402 26.0667 33.25 25.3333 33.25H6.66667ZM6.66667 30.0833H25.3333V7.91667H6.66667V30.0833ZM16 6.72917C16.2889 6.72917 16.528 6.61675 16.7173 6.39192C16.9058 6.16814 17 5.88472 17 5.54167C17 5.19861 16.9058 4.91467 16.7173 4.68983C16.528 4.46606 16.2889 4.35417 16 4.35417C15.7111 4.35417 15.4724 4.46606 15.284 4.68983C15.0947 4.91467 15 5.19861 15 5.54167C15 5.88472 15.0947 6.16814 15.284 6.39192C15.4724 6.61675 15.7111 6.72917 16 6.72917Z" fill="#EE5555"/>
</svg>
