<svg width="32" height="38" viewBox="0 0 32 38" fill="none" xmlns="http://www.w3.org/2000/svg">
<path d="M6.66667 30.0833H25.3333V15.5562L18.9 7.91667H6.66667V30.0833ZM6.66667 33.25C5.93333 33.25 5.30533 32.9402 4.78267 32.3206C4.26089 31.6999 4 30.9542 4 30.0833V7.91667C4 7.04583 4.26089 6.30008 4.78267 5.67942C5.30533 5.05981 5.93333 4.75 6.66667 4.75H20L28 14.25V30.0833C28 30.9542 27.7391 31.6999 27.2173 32.3206C26.6947 32.9402 26.0667 33.25 25.3333 33.25H6.66667ZM9.33333 26.9167H22.6667V23.75H9.33333V26.9167ZM9.33333 20.5833H22.6667V17.4167H9.33333V20.5833ZM9.33333 14.25H18.6667V11.0833H9.33333V14.25Z" fill="#EE5555"/>
</svg>
