<svg width="32" height="35" viewBox="0 0 32 35" fill="none" xmlns="http://www.w3.org/2000/svg">
<path d="M6.66667 26.0313C7.86667 24.7431 9.26133 23.7281 10.8507 22.9862C12.4391 22.2454 14.1556 21.875 16 21.875C17.8444 21.875 19.5613 22.2454 21.1507 22.9862C22.7391 23.7281 24.1333 24.7431 25.3333 26.0313V7.29167H6.66667V26.0313ZM16 18.9583C17.2889 18.9583 18.3889 18.4601 19.3 17.4635C20.2111 16.467 20.6667 15.2639 20.6667 13.8542C20.6667 12.4444 20.2111 11.2413 19.3 10.2448C18.3889 9.24826 17.2889 8.75 16 8.75C14.7111 8.75 13.6111 9.24826 12.7 10.2448C11.7889 11.2413 11.3333 12.4444 11.3333 13.8542C11.3333 15.2639 11.7889 16.467 12.7 17.4635C13.6111 18.4601 14.7111 18.9583 16 18.9583ZM6.66667 30.625C5.93333 30.625 5.30533 30.3397 4.78267 29.769C4.26089 29.1973 4 28.5104 4 27.7083V7.29167C4 6.48958 4.26089 5.80271 4.78267 5.23104C5.30533 4.66035 5.93333 4.375 6.66667 4.375H25.3333C26.0667 4.375 26.6947 4.66035 27.2173 5.23104C27.7391 5.80271 28 6.48958 28 7.29167V27.7083C28 28.5104 27.7391 29.1973 27.2173 29.769C26.6947 30.3397 26.0667 30.625 25.3333 30.625H6.66667ZM9.33333 27.7083H22.6667V27.3437C21.7333 26.4931 20.7 25.8553 19.5667 25.4304C18.4333 25.0046 17.2444 24.7917 16 24.7917C14.7556 24.7917 13.5667 25.0046 12.4333 25.4304C11.3 25.8553 10.2667 26.4931 9.33333 27.3437V27.7083ZM16 16.0417C15.4444 16.0417 14.9724 15.8288 14.584 15.4029C14.1947 14.9781 14 14.4618 14 13.8542C14 13.2465 14.1947 12.7303 14.584 12.3054C14.9724 11.8796 15.4444 11.6667 16 11.6667C16.5556 11.6667 17.0276 11.8796 17.416 12.3054C17.8053 12.7303 18 13.2465 18 13.8542C18 14.4618 17.8053 14.9781 17.416 15.4029C17.0276 15.8288 16.5556 16.0417 16 16.0417Z" fill="#EE5555"/>
</svg>
