<svg width="32" height="36" viewBox="0 0 32 36" fill="none" xmlns="http://www.w3.org/2000/svg">
<path d="M5.33333 31.5C4.6 31.5 3.97244 31.2065 3.45067 30.6195C2.928 30.0315 2.66667 29.325 2.66667 28.5V4.5L4.9 7.0125L7.1 4.5L9.33333 7.0125L11.5667 4.5L13.7667 7.0125L16 4.5L18.2333 7.0125L20.4333 4.5L22.6667 7.0125L24.9 4.5L27.1 7.0125L29.3333 4.5V28.5C29.3333 29.325 29.0724 30.0315 28.5507 30.6195C28.028 31.2065 27.4 31.5 26.6667 31.5H5.33333ZM5.33333 28.5H14.6667V19.5H5.33333V28.5ZM17.3333 28.5H26.6667V25.5H17.3333V28.5ZM17.3333 22.5H26.6667V19.5H17.3333V22.5ZM5.33333 16.5H26.6667V12H5.33333V16.5Z" fill="#EE5555"/>
</svg>
