<svg width="24" height="24" viewBox="0 0 24 24" fill="none" xmlns="http://www.w3.org/2000/svg">
<path d="M17.7587 13.7907C17.7119 13.7683 15.9623 12.9067 15.6514 12.7948C15.5244 12.7492 15.3884 12.7047 15.2438 12.7047C15.0076 12.7047 14.8091 12.8225 14.6545 13.0537C14.4797 13.3135 13.9506 13.932 13.7871 14.1168C13.7658 14.1411 13.7366 14.1703 13.7192 14.1703C13.7035 14.1703 13.4328 14.0588 13.3508 14.0232C11.4739 13.2079 10.0492 11.2473 9.85387 10.9166C9.82597 10.8691 9.8248 10.8475 9.82457 10.8475C9.83143 10.8224 9.89454 10.7591 9.92712 10.7264C10.0224 10.6322 10.1257 10.5079 10.2256 10.3876C10.2729 10.3307 10.3202 10.2736 10.3668 10.2199C10.5117 10.0512 10.5762 9.92034 10.651 9.7687L10.6902 9.68992C10.8729 9.32704 10.7169 9.0208 10.6664 8.92192C10.6251 8.83917 9.88628 7.05616 9.80774 6.86883C9.61885 6.4168 9.36927 6.20634 9.02244 6.20634C8.99026 6.20634 9.02244 6.20634 8.88748 6.21203C8.72314 6.21896 7.82821 6.33678 7.43252 6.58621C7.01291 6.85075 6.30303 7.69403 6.30303 9.17704C6.30303 10.5118 7.15005 11.772 7.51371 12.2513C7.52275 12.2634 7.53935 12.2879 7.56343 12.3231C8.95613 14.3571 10.6923 15.8644 12.4523 16.5675C14.1468 17.2443 14.9491 17.3225 15.4053 17.3225C15.597 17.3225 15.7505 17.3075 15.8858 17.2942L15.9717 17.286C16.557 17.2341 17.8434 16.5676 18.136 15.7544C18.3665 15.114 18.4273 14.4143 18.2739 14.1603C18.1689 13.9876 17.9878 13.9008 17.7587 13.7907Z" fill="white"/>
<path d="M12.213 0C5.71308 0 0.424969 5.24836 0.424969 11.6995C0.424969 13.786 0.983359 15.8284 2.04115 17.6159L0.0165014 23.5883C-0.0212129 23.6996 0.00683905 23.8227 0.0892028 23.9066C0.148657 23.9673 0.229307 24 0.31167 24C0.343229 24 0.375021 23.9952 0.406034 23.9854L6.63357 22.0064C8.33773 22.917 10.2638 23.3976 12.2131 23.3976C18.7124 23.3977 24 18.1498 24 11.6995C24 5.24836 18.7124 0 12.213 0ZM12.213 20.9606C10.3788 20.9606 8.60227 20.4309 7.07516 19.4289C7.02381 19.3951 6.9642 19.3778 6.9042 19.3778C6.87248 19.3778 6.84069 19.3826 6.80975 19.3925L3.69014 20.3841L4.69721 17.413C4.72978 17.3169 4.71349 17.2108 4.65349 17.1288C3.49058 15.5398 2.87585 13.6625 2.87585 11.6995C2.87585 6.59221 7.06448 2.43709 12.213 2.43709C17.3608 2.43709 21.549 6.59221 21.549 11.6995C21.549 16.8061 17.361 20.9606 12.213 20.9606Z" fill="white"/>
</svg>
