<svg width="30" height="30" viewBox="0 0 30 30" fill="none" xmlns="http://www.w3.org/2000/svg">
<path d="M7.5 22.5001H22.5V19.5001H7.5V22.5001ZM15 18.0001L21 12.0001L18.9 9.90006L16.5 12.2251V6.00006H13.5V12.2251L11.1 9.90006L9 12.0001L15 18.0001ZM15 30.0001C12.925 30.0001 10.975 29.6061 9.15 28.8181C7.325 28.0311 5.7375 26.9626 4.3875 25.6126C3.0375 24.2626 1.969 22.6751 1.182 20.8501C0.393998 19.0251 -1.90735e-06 17.0751 -1.90735e-06 15.0001C-1.90735e-06 12.9251 0.393998 10.9751 1.182 9.15006C1.969 7.32506 3.0375 5.73756 4.3875 4.38756C5.7375 3.03756 7.325 1.96856 9.15 1.18056C10.975 0.393561 12.925 6.10352e-05 15 6.10352e-05C17.075 6.10352e-05 19.025 0.393561 20.85 1.18056C22.675 1.96856 24.2625 3.03756 25.6125 4.38756C26.9625 5.73756 28.031 7.32506 28.818 9.15006C29.606 10.9751 30 12.9251 30 15.0001C30 17.0751 29.606 19.0251 28.818 20.8501C28.031 22.6751 26.9625 24.2626 25.6125 25.6126C24.2625 26.9626 22.675 28.0311 20.85 28.8181C19.025 29.6061 17.075 30.0001 15 30.0001ZM15 27.0001C18.35 27.0001 21.1875 25.8376 23.5125 23.5126C25.8375 21.1876 27 18.3501 27 15.0001C27 11.6501 25.8375 8.81256 23.5125 6.48756C21.1875 4.16256 18.35 3.00006 15 3.00006C11.65 3.00006 8.8125 4.16256 6.4875 6.48756C4.1625 8.81256 3 11.6501 3 15.0001C3 18.3501 4.1625 21.1876 6.4875 23.5126C8.8125 25.8376 11.65 27.0001 15 27.0001Z" fill="#EEEEFF"/>
</svg>
