<svg width="60" height="60" viewBox="0 0 60 60" fill="none" xmlns="http://www.w3.org/2000/svg">
<rect width="60" height="60" fill="#1E1E1E"/>
<g clip-path="url(#clip0_0_1)">
<rect width="1260" height="2365" transform="translate(-339 -2125)" fill="white"/>
<g filter="url(#filter0_dd_0_1)">
<rect x="-9" y="-23" width="600" height="104" rx="5" fill="#F2F2FF"/>
</g>
<circle cx="30.5" cy="29.5" r="29.5" transform="rotate(-90 30.5 29.5)" fill="url(#paint0_linear_0_1)"/>
<mask id="mask0_0_1" style="mask-type:alpha" maskUnits="userSpaceOnUse" x="0" y="0" width="60" height="60">
<rect width="59.2" height="59.2" fill="#D9D9D9"/>
</mask>
<g mask="url(#mask0_0_1)">
<path d="M28 40H32V28H28V40ZM30 24C30.5667 24 31.042 23.808 31.426 23.424C31.8087 23.0413 32 22.5667 32 22C32 21.4333 31.8087 20.958 31.426 20.574C31.042 20.1913 30.5667 20 30 20C29.4333 20 28.9587 20.1913 28.576 20.574C28.192 20.958 28 21.4333 28 22C28 22.5667 28.192 23.0413 28.576 23.424C28.9587 23.808 29.4333 24 30 24ZM30 50C27.2333 50 24.6333 49.4747 22.2 48.424C19.7667 47.3747 17.65 45.95 15.85 44.15C14.05 42.35 12.6253 40.2333 11.576 37.8C10.5253 35.3667 10 32.7667 10 30C10 27.2333 10.5253 24.6333 11.576 22.2C12.6253 19.7667 14.05 17.65 15.85 15.85C17.65 14.05 19.7667 12.6247 22.2 11.574C24.6333 10.5247 27.2333 10 30 10C32.7667 10 35.3667 10.5247 37.8 11.574C40.2333 12.6247 42.35 14.05 44.15 15.85C45.95 17.65 47.3747 19.7667 48.424 22.2C49.4747 24.6333 50 27.2333 50 30C50 32.7667 49.4747 35.3667 48.424 37.8C47.3747 40.2333 45.95 42.35 44.15 44.15C42.35 45.95 40.2333 47.3747 37.8 48.424C35.3667 49.4747 32.7667 50 30 50ZM30 46C34.4667 46 38.25 44.45 41.35 41.35C44.45 38.25 46 34.4667 46 30C46 25.5333 44.45 21.75 41.35 18.65C38.25 15.55 34.4667 14 30 14C25.5333 14 21.75 15.55 18.65 18.65C15.55 21.75 14 25.5333 14 30C14 34.4667 15.55 38.25 18.65 41.35C21.75 44.45 25.5333 46 30 46Z" fill="#F2F2FF"/>
</g>
</g>
<defs>
<filter id="filter0_dd_0_1" x="-15" y="-25" width="612" height="116" filterUnits="userSpaceOnUse" color-interpolation-filters="sRGB">
<feFlood flood-opacity="0" result="BackgroundImageFix"/>
<feColorMatrix in="SourceAlpha" type="matrix" values="0 0 0 0 0 0 0 0 0 0 0 0 0 0 0 0 0 0 127 0" result="hardAlpha"/>
<feMorphology radius="2" operator="dilate" in="SourceAlpha" result="effect1_dropShadow_0_1"/>
<feOffset dy="4"/>
<feGaussianBlur stdDeviation="2"/>
<feComposite in2="hardAlpha" operator="out"/>
<feColorMatrix type="matrix" values="0 0 0 0 0.533333 0 0 0 0 0.533333 0 0 0 0 0.6 0 0 0 0.04 0"/>
<feBlend mode="normal" in2="BackgroundImageFix" result="effect1_dropShadow_0_1"/>
<feColorMatrix in="SourceAlpha" type="matrix" values="0 0 0 0 0 0 0 0 0 0 0 0 0 0 0 0 0 0 127 0" result="hardAlpha"/>
<feOffset dy="4"/>
<feGaussianBlur stdDeviation="2"/>
<feComposite in2="hardAlpha" operator="out"/>
<feColorMatrix type="matrix" values="0 0 0 0 0 0 0 0 0 0 0 0 0 0 0 0 0 0 0.1 0"/>
<feBlend mode="normal" in2="effect1_dropShadow_0_1" result="effect2_dropShadow_0_1"/>
<feBlend mode="normal" in="SourceGraphic" in2="effect2_dropShadow_0_1" result="shape"/>
</filter>
<linearGradient id="paint0_linear_0_1" x1="30.5" y1="0" x2="30.5" y2="59" gradientUnits="userSpaceOnUse">
<stop stop-color="#001199"/>
<stop offset="1" stop-color="#5566EE"/>
</linearGradient>
<clipPath id="clip0_0_1">
<rect width="1260" height="2365" fill="white" transform="translate(-339 -2125)"/>
</clipPath>
</defs>
</svg>
