<svg width="186" height="473" viewBox="0 0 186 473" fill="none" xmlns="http://www.w3.org/2000/svg">
<g filter="url(#filter0_dd_43_294)">
<path d="M115.041 440.339C107.973 445.983 89.3861 444.061 80.1048 441.555C75.0328 440.153 69.7383 439.74 64.5102 440.339C65.0027 441.46 65.8601 442.382 66.9431 442.954C70.0693 444.414 72.271 442.589 73.1833 442.224C74.0957 441.859 76.492 444.232 89.5078 446.068C102.524 447.905 108.046 447.175 111.708 444.791C113.848 443.331 115.041 441.628 115.041 440.339Z" fill="#263238" stroke="#263238" stroke-linecap="round" stroke-linejoin="round"/>
<path d="M90.4201 457.564C90.8673 457.055 91.2401 456.486 91.527 455.873C89.535 456.974 87.3068 457.579 85.0313 457.637C79.6547 457.71 62.6491 452.369 55.7398 448.416C50.059 445.168 43.0524 445.266 40.7291 445.399C40.8142 447.163 41.7265 448.72 44.3783 449.499C48.7696 450.715 49.3292 448.939 49.3292 448.939C49.3292 448.939 57.3941 454.632 70.9694 457.564C84.5447 460.495 87.1114 461.42 90.4201 457.564Z" fill="#263238" stroke="#263238" stroke-linecap="round" stroke-linejoin="round"/>
<path d="M146.035 157.544C146.035 157.544 149.867 167.482 156.509 171.642C156.558 167.407 156.932 163.182 157.628 159.004C158.649 154.211 150.657 150.464 146.035 157.544Z" fill="#263238" stroke="#263238" stroke-linecap="round" stroke-linejoin="round"/>
<path d="M112.669 230.274C111.803 253.101 109.52 275.851 105.832 298.394C100.03 331.675 86.3694 356.345 85.3355 368.947C84.3015 381.549 84.1191 406.182 84.1191 411.315C84.1191 416.448 85.7734 414.806 85.9559 419.392C86.1383 423.978 85.9559 430.024 85.9559 430.024C82.9364 431.479 79.809 432.699 76.6015 433.673C74.79 434.155 72.9494 434.521 71.0911 434.768C71.0911 434.768 71.8331 436.239 67.9771 426.885C64.121 417.531 62.6248 401.121 62.9411 385.162C63.2573 369.202 70.7992 340.92 73.6821 324.839C76.565 308.758 84.7394 267.667 85.6396 259.018C86.5397 250.37 88.5955 229.192 88.5955 229.192C93.2059 229.94 97.899 230.034 102.536 229.471C109.944 228.571 112.669 230.274 112.669 230.274Z" fill="white" stroke="#263238" stroke-linecap="round" stroke-linejoin="round"/>
<path d="M91.8677 231.32C82.2045 233.628 72.1054 233.364 62.5761 230.554C47.0667 225.846 37.3961 223.255 37.0312 224.545C36.9585 224.699 36.9188 224.866 36.9148 225.036C36.9108 225.206 36.9424 225.375 37.0078 225.532C37.0731 225.689 37.1707 225.831 37.2941 225.948C37.4176 226.065 37.5642 226.154 37.7245 226.211C37.7245 226.211 41.24 318.173 38.2354 330.958C35.2309 343.742 33.5035 345.908 33.4792 356.697C33.4549 367.487 34.4645 410.573 36.6662 423.041C38.868 435.51 38.5031 433.721 38.126 437.018C37.7489 440.314 38.868 442.711 39.5978 443.258C40.3277 443.806 42.7241 448.355 52.8082 444.694C59.2419 442.323 65.5511 439.627 71.7115 436.617C72.1896 432.784 72.3726 428.921 72.2589 425.061C72.2589 416.436 67.8189 410.05 67.9527 403.445C68.0865 396.839 67.2107 367.098 73.1347 346.479C77.6598 330.666 84.557 289.733 88.486 265.575L96.1981 260.904" fill="white"/>
<path d="M91.8677 231.32C82.2045 233.628 72.1054 233.364 62.5761 230.554C47.0667 225.846 37.3961 223.255 37.0312 224.545C36.9585 224.699 36.9188 224.866 36.9148 225.036C36.9108 225.206 36.9424 225.375 37.0078 225.532C37.0731 225.689 37.1707 225.831 37.2941 225.948C37.4176 226.065 37.5642 226.154 37.7245 226.211C37.7245 226.211 41.24 318.173 38.2354 330.958C35.2309 343.742 33.5035 345.908 33.4792 356.697C33.4549 367.487 34.4645 410.573 36.6662 423.041C38.868 435.51 38.5031 433.721 38.126 437.018C37.7489 440.314 38.868 442.711 39.5978 443.258C40.3277 443.806 42.7241 448.355 52.8082 444.694C59.2419 442.323 65.5511 439.627 71.7115 436.617C72.1896 432.784 72.3726 428.921 72.2589 425.061C72.2589 416.436 67.8189 410.05 67.9527 403.445C68.0865 396.839 67.2107 367.098 73.1347 346.479C77.6598 330.666 84.557 289.733 88.486 265.575L96.1981 260.904" stroke="#263238" stroke-linecap="round" stroke-linejoin="round"/>
<path d="M42.5294 368.971C41.9003 373.113 41.6074 377.299 41.6536 381.488C42.0672 395.258 46.1179 424.416 46.5193 426.034C46.9207 427.652 44.4879 432.116 45.3029 434.95C46.1179 437.784 48.1371 443.465 48.1371 443.465" stroke="#263238" stroke-linecap="round" stroke-linejoin="round"/>
<path d="M51.3363 267.412C50.6673 292.604 49.4022 336.456 48.5385 340.191C47.8208 343.317 45.3758 352.452 43.6728 362.244" stroke="#263238" stroke-linecap="round" stroke-linejoin="round"/>
<path d="M51.7864 249.883C51.7864 249.883 51.6891 253.642 51.5431 259.614" stroke="#263238" stroke-linecap="round" stroke-linejoin="round"/>
<path d="M74.6066 428.746C74.4727 430.899 74.4727 432.396 74.4727 432.396" stroke="white" stroke-width="0.75" stroke-linecap="round" stroke-linejoin="round"/>
<path d="M72.3075 79.4739L47.979 88.5119L50.8011 233.668C50.8011 233.668 89.1793 243.108 112.729 230.274L113.581 203.513C113.581 203.513 112.048 140.174 109.567 123.886C107.085 107.598 97.4024 89.4607 97.4024 89.4607C97.4024 89.4607 86.3451 82.5271 82.9999 81.335C79.4968 80.404 75.9191 79.7813 72.3075 79.4739Z" fill="#263238" stroke="#263238" stroke-linecap="round" stroke-linejoin="round"/>
<path d="M87.0627 87.8063L99.3365 105.08L92.7191 83.8043L89.5442 75.6664L87.0627 87.8063Z" fill="white" stroke="#263238" stroke-linecap="round" stroke-linejoin="round"/>
<path d="M72.7697 49.8784C72.7697 49.8784 65.7388 78.0021 65.4712 79.2429C65.2035 80.4836 85.7976 100.36 85.7976 100.36L93.7409 76.0315C93.7409 76.0315 81.0171 68.0274 78.5721 61.3371C76.1271 54.6467 73.974 48.8687 72.7697 49.8784Z" fill="white" stroke="#263238" stroke-linecap="round" stroke-linejoin="round"/>
<path d="M69.6679 199.195L70.3369 243.752" stroke="#263238" stroke-linecap="round" stroke-linejoin="round"/>
<path d="M68.1352 97.3309L69.5949 194.353" stroke="#263238" stroke-linecap="round" stroke-linejoin="round"/>
<path d="M66.0186 68.7693L82.8661 88.743L72.5752 107.804L59.2553 76.3476L66.0186 68.7693Z" fill="white" stroke="#263238" stroke-linecap="round" stroke-linejoin="round"/>
<path d="M82.8661 88.743L85.7491 100.36L79.0465 96.0051L82.8661 88.743Z" fill="white" stroke="#263238" stroke-linecap="round" stroke-linejoin="round"/>
<path d="M122.132 29.2354C122.132 29.2354 119.931 38.2126 114.165 55.9238C108.399 73.6349 103.022 83.0014 96.4657 81.0551C89.9092 79.1088 75.6527 70.5087 73.013 65.3389C70.3734 60.1691 71.2127 53.795 71.2127 53.795C71.2127 53.795 65.5806 53.4058 65.4833 46.4965C65.386 39.5872 69.1326 36.3758 71.9426 36.023C74.7525 35.6703 79.6425 39.429 81.674 33.797C83.7054 28.1649 79.156 22.2044 83.6203 18.9809C88.0845 15.7574 98.2903 15.8547 107.17 18.9809C112.719 20.9897 117.745 24.2198 121.877 28.4325L122.132 29.2354Z" fill="white" stroke="#263238" stroke-linecap="round" stroke-linejoin="round"/>
<path d="M110.26 46.3872C110.26 46.3872 110.613 56.9215 109.81 58.2717C109.007 59.6219 99.9691 56.5079 99.9691 56.5079" stroke="#263238" stroke-linecap="round" stroke-linejoin="round"/>
<path d="M105.54 64.4146C102.108 64.1195 98.8427 62.8064 96.1617 60.6437C91.6001 56.9944 91.1986 54.3547 91.1986 54.3547" stroke="#263238" stroke-linecap="round" stroke-linejoin="round"/>
<path d="M92.8043 53.1017L89.3618 54.8533" stroke="#263238" stroke-linecap="round" stroke-linejoin="round"/>
<path d="M86.0775 430.048C86.0775 430.048 110.102 437.943 113.228 438.49C116.354 439.037 115.43 442.346 111.756 444.73C108.083 447.114 102.584 447.844 89.5565 446.007C76.5286 444.171 74.1565 441.786 73.232 442.164C72.3076 442.541 70.118 444.353 66.9918 442.893C63.8656 441.434 62.4058 435.595 65.5321 432.797C68.6583 429.999 86.0775 430.048 86.0775 430.048Z" fill="url(#paint0_linear_43_294)" stroke="#263238" stroke-linecap="round" stroke-linejoin="round"/>
<path d="M69.3273 435.765C69.3273 435.765 77.7571 443.465 84.5448 447.321C91.3325 451.177 93.7167 453.744 90.4201 457.588C87.1236 461.432 84.5448 460.532 70.9573 457.588C57.3698 454.644 49.3171 448.963 49.3171 448.963C49.3171 448.963 48.7575 450.8 44.3662 449.523C39.9749 448.246 40.3399 444.73 41.4347 441.847C42.5294 438.964 56.6643 429.683 69.3273 435.765Z" fill="url(#paint1_linear_43_294)" stroke="#263238" stroke-linecap="round" stroke-linejoin="round"/>
<path d="M109.056 92.4412C115.09 96.1352 119.712 101.746 122.181 108.376C126.001 119.215 128.336 168.845 128.336 168.845L146.035 157.544C146.035 157.544 157.263 154.515 157.628 159.004C157.993 163.493 156.509 171.643 156.509 171.643C156.509 171.643 132.8 191.775 129.601 195.302C126.402 198.83 122.728 202.783 117.364 202.224C112 201.664 115.272 170.378 115.272 170.378L109.056 92.4412Z" fill="url(#paint2_linear_43_294)" stroke="#263238" stroke-linecap="round" stroke-linejoin="round"/>
<path d="M117.705 108.802C117.705 108.802 121.208 145.501 120.867 163.018C120.527 180.535 119.347 238.899 119.347 238.899L111.829 242.998C111.829 242.998 110.82 187.237 109.737 161.729C108.654 136.22 93.7166 86.5534 93.7166 86.5534L91.2108 79.5955C91.2108 79.5955 98.7769 85.1545 106.124 89.5458C113.471 93.9371 117.498 105.177 117.498 105.177" fill="url(#paint3_linear_43_294)"/>
<path d="M117.705 108.802C117.705 108.802 121.208 145.501 120.867 163.018C120.527 180.535 119.347 238.899 119.347 238.899L111.829 242.998C111.829 242.998 110.82 187.237 109.737 161.729C108.654 136.22 93.7166 86.5534 93.7166 86.5534L91.2108 79.5955C91.2108 79.5955 98.7769 85.1545 106.124 89.5458C113.471 93.9371 117.498 105.177 117.498 105.177" stroke="#263238" stroke-linecap="round" stroke-linejoin="round"/>
<path d="M99.0081 96.0173C99.0081 96.0173 107.389 125.114 110.029 139.237C112.669 153.36 115.32 177.153 114.895 189.11C114.469 201.068 111.89 243.047 111.89 243.047" stroke="#263238" stroke-linecap="round" stroke-linejoin="round"/>
<path d="M66.9066 75.922C71.3146 91.7338 74.0143 107.973 74.9593 124.36C76.0541 149.333 75.154 247.535 75.154 247.535L30.6814 241.38C30.6814 241.38 34.0266 180.389 34.0631 178.272C34.0996 176.156 22.1299 95.1659 22.1786 92.4655C22.2273 89.765 62.418 75.0462 66.9066 75.922Z" fill="url(#paint4_linear_43_294)" stroke="#263238" stroke-linecap="round" stroke-linejoin="round"/>
<path d="M27.5552 88.8162C27.5552 88.8162 14.6246 92.5263 14.0407 96.9662C13.4568 101.406 10.1116 181.775 9.50342 187.213C8.89521 192.65 8.287 197.078 11.2307 200.107C14.1745 203.136 97.0618 168.48 97.0618 168.48L95.9427 150.647L42.0307 160.853L44.8771 130.442" fill="url(#paint5_linear_43_294)"/>
<path d="M27.5552 88.8162C27.5552 88.8162 14.6246 92.5263 14.0407 96.9662C13.4568 101.406 10.1116 181.775 9.50342 187.213C8.89521 192.65 8.287 197.078 11.2307 200.107C14.1745 203.136 97.0618 168.48 97.0618 168.48L95.9427 150.647L42.0307 160.853L44.8771 130.442" stroke="#263238" stroke-linecap="round" stroke-linejoin="round"/>
<path d="M91.5392 55.8024C91.5392 55.8024 91.0891 62.2494 92.5732 64.8769C94.0572 67.5044 98.6553 62.7238 98.6553 62.7238C98.6553 62.7238 92.634 57.9554 91.5392 55.8024Z" fill="#263238" stroke="#263238" stroke-linecap="round" stroke-linejoin="round"/>
<path d="M104.166 44.9395C103.703 46.3749 102.779 47.3724 102.11 47.1413C101.441 46.9101 101.271 45.5842 101.733 44.1488C102.195 42.7135 103.12 41.716 103.801 41.9471C104.482 42.1782 104.64 43.5042 104.166 44.9395Z" fill="#263238"/>
<path d="M114.943 48.2725C114.481 49.7079 113.556 50.7054 112.887 50.4743C112.218 50.2431 112.048 48.9172 112.51 47.4819C112.973 46.0465 113.897 45.049 114.578 45.2801C115.259 45.5112 115.418 46.8371 114.943 48.2725Z" fill="#263238"/>
<path d="M95.9791 35.0864C95.9791 35.0864 99.9447 31.1695 105.711 35.0256" stroke="#263238" stroke-linecap="round" stroke-linejoin="round"/>
<path d="M112.583 38.164C112.583 38.164 116.829 36.1326 118.106 40.4996" stroke="#263238" stroke-linecap="round" stroke-linejoin="round"/>
<path d="M126.037 23.1413C123.78 18.4372 120.029 14.6131 115.369 12.2664C100.079 4.14067 76.3704 -2.71997 70.1301 23.9927C69.1427 28.5917 68.7058 33.2917 68.8285 37.9938C69.6047 37.6011 70.4869 37.4694 71.3439 37.6185C72.2008 37.7675 72.9868 38.1893 73.5848 38.821C75.5432 41.0835 73.7307 43.9057 77.1367 43.93C80.5427 43.9543 81.2604 40.0617 81.893 38.1155C82.5255 36.1692 88.8753 39.8549 90.043 36.2786C91.3933 32.1185 85.1773 26.7175 89.7511 23.348C93.2787 20.7449 97.9984 24.3942 100.821 26.3891C105.455 29.6491 109.956 32.897 115.418 34.673C120.186 36.2178 127.132 38.3223 127.582 31.3886C127.748 28.5546 127.217 25.7231 126.037 23.1413Z" fill="#263238" stroke="#263238" stroke-linecap="round" stroke-linejoin="round"/>
<path d="M148.286 151.012C147.707 148.249 147.329 145.448 147.154 142.631C147.276 140.575 154.051 133.386 154.051 133.386L158.503 138.337L148.286 151.012Z" fill="white" stroke="#263238" stroke-linecap="round" stroke-linejoin="round"/>
<path d="M166.641 106.077L147.276 140.575L159.136 141.451L176.835 110.25L166.641 106.077Z" fill="#263238" stroke="#263238" stroke-linecap="round" stroke-linejoin="round"/>
<path d="M169.111 134.833C169.111 134.833 173.186 129.42 173.271 127.693C173.076 124.674 172.415 121.703 171.312 118.886C170.424 117.049 168.6 113.911 167.517 115.857C166.435 117.804 168.089 121.465 168.125 122.122C168.162 122.779 168.466 126.988 168.466 126.988L167.408 129.7L169.111 134.833Z" fill="white" stroke="#263238" stroke-linecap="round" stroke-linejoin="round"/>
<path d="M146.692 153.554C146.951 152.415 147.272 151.29 147.653 150.185C148.164 148.81 152.324 143.555 152.324 143.555C152.324 143.555 142.787 129.627 143.955 128.678C145.123 127.73 150.597 133.349 150.597 133.349L155.122 136.391L156.74 137.546C156.74 137.546 154.696 135.369 153.54 134.043C152.385 132.717 147.86 129.396 146.473 128.155C145.086 126.915 143.76 126.112 145.013 124.616C146.266 123.119 146.789 123.29 148.006 124.08C149.222 124.871 149.222 125.844 153.881 127.997C158.54 130.15 159.963 130.953 160.9 132.352C161.836 133.751 163.102 136.086 163.102 136.086L162.98 129.323C162.98 129.323 156.144 122.268 155.438 120.808C154.733 119.348 154.793 117.804 156.326 117.755C157.859 117.706 164.367 122.621 165.668 123.679C166.97 124.737 169.147 127.657 169.232 128.861C169.182 132.252 168.914 135.637 168.43 138.994C168.101 140.04 157.628 158.992 157.628 158.992L153.978 166.205C153.978 166.205 151.351 169.283 148.334 163.079C145.317 156.875 146.692 153.554 146.692 153.554Z" fill="white" stroke="#263238" stroke-linecap="round" stroke-linejoin="round"/>
<path d="M123.665 142.169C125.574 141.891 127.436 141.355 129.2 140.575C132.095 139.286 135.55 140.94 133.105 143.689C130.66 146.438 131.803 146.304 127.582 147.521C123.361 148.737 123.665 142.169 123.665 142.169Z" fill="white" stroke="#263238" stroke-linecap="round" stroke-linejoin="round"/>
<path d="M98.0714 161.437C98.0714 161.437 103.618 163.091 108.034 162.325C112.45 161.558 114.615 156.486 114.615 156.486C114.615 156.486 115.904 161.352 118.374 161.218C120.843 161.084 127.363 154.236 127.363 154.236L127.582 147.521C127.617 146.32 127.251 145.142 126.542 144.173C125.832 143.203 124.82 142.498 123.665 142.169L117.583 140.453C119.863 138.689 122.247 137.064 124.723 135.588C126.171 135.004 132.654 135.588 135.55 134.444C138.445 133.301 137.265 129.883 131.304 129.749C125.344 129.615 118.933 129.992 114.663 133.216C111.256 136.071 108.128 139.244 105.321 142.692L95.894 150.684L90.4931 151.499L92.1231 162.3L98.0714 161.437Z" fill="white" stroke="#263238" stroke-linecap="round" stroke-linejoin="round"/>
<path d="M112.912 148.616C112.912 148.616 114.7 147.399 117.084 149.832C119.468 152.265 121.378 159.259 121.378 159.259" stroke="#263238" stroke-linecap="round" stroke-linejoin="round"/>
<path d="M116.366 143.944C116.366 143.944 121.999 144.723 123.239 146.888C124.48 149.053 124.857 155.403 124.857 155.403" stroke="#263238" stroke-linecap="round" stroke-linejoin="round"/>
<path d="M42.0307 160.853C42.0307 160.853 30.6449 163.48 24.0397 173.625" stroke="#263238" stroke-linecap="round" stroke-linejoin="round"/>
</g>
<defs>
<filter id="filter0_dd_43_294" x="0.500183" y="0.5" width="184.835" height="472.144" filterUnits="userSpaceOnUse" color-interpolation-filters="sRGB">
<feFlood flood-opacity="0" result="BackgroundImageFix"/>
<feColorMatrix in="SourceAlpha" type="matrix" values="0 0 0 0 0 0 0 0 0 0 0 0 0 0 0 0 0 0 127 0" result="hardAlpha"/>
<feOffset/>
<feGaussianBlur stdDeviation="1.5"/>
<feComposite in2="hardAlpha" operator="out"/>
<feColorMatrix type="matrix" values="0 0 0 0 0.133333 0 0 0 0 0.133333 0 0 0 0 0.2 0 0 0 0.06 0"/>
<feBlend mode="normal" in2="BackgroundImageFix" result="effect1_dropShadow_43_294"/>
<feColorMatrix in="SourceAlpha" type="matrix" values="0 0 0 0 0 0 0 0 0 0 0 0 0 0 0 0 0 0 127 0" result="hardAlpha"/>
<feOffset dy="4"/>
<feGaussianBlur stdDeviation="4"/>
<feComposite in2="hardAlpha" operator="out"/>
<feColorMatrix type="matrix" values="0 0 0 0 0 0 0 0 0 0 0 0 0 0 0 0 0 0 0.1 0"/>
<feBlend mode="normal" in2="effect1_dropShadow_43_294" result="effect2_dropShadow_43_294"/>
<feBlend mode="normal" in="SourceGraphic" in2="effect2_dropShadow_43_294" result="shape"/>
</filter>
<linearGradient id="paint0_linear_43_294" x1="89.4571" y1="430.048" x2="89.4571" y2="447.04" gradientUnits="userSpaceOnUse">
<stop stop-color="#EE1122"/>
<stop offset="1" stop-color="#EE1122"/>
</linearGradient>
<linearGradient id="paint1_linear_43_294" x1="66.3054" y1="433.74" x2="66.3054" y2="460.144" gradientUnits="userSpaceOnUse">
<stop stop-color="#EE1122"/>
<stop offset="1" stop-color="#EE1122"/>
</linearGradient>
<linearGradient id="paint2_linear_43_294" x1="133.371" y1="92.4412" x2="133.371" y2="202.277" gradientUnits="userSpaceOnUse">
<stop stop-color="#EE1122"/>
<stop offset="1" stop-color="#EE1122"/>
</linearGradient>
<linearGradient id="paint3_linear_43_294" x1="106.051" y1="79.5955" x2="106.051" y2="242.998" gradientUnits="userSpaceOnUse">
<stop stop-color="#EE1122"/>
<stop offset="1" stop-color="#EE1122"/>
</linearGradient>
<linearGradient id="paint4_linear_43_294" x1="48.8402" y1="75.8845" x2="48.8402" y2="247.535" gradientUnits="userSpaceOnUse">
<stop stop-color="#EE1122"/>
<stop offset="1" stop-color="#EE1122"/>
</linearGradient>
<linearGradient id="paint5_linear_43_294" x1="53.0309" y1="88.8162" x2="53.0309" y2="200.295" gradientUnits="userSpaceOnUse">
<stop stop-color="#EE1122"/>
<stop offset="1" stop-color="#EE1122"/>
</linearGradient>
</defs>
</svg>
