<svg width="28" height="28" viewBox="0 0 28 28" fill="none" xmlns="http://www.w3.org/2000/svg">
<path d="M19.8333 19.8333C20.3194 19.8333 20.7324 19.663 21.0723 19.3223C21.413 18.9824 21.5833 18.5694 21.5833 18.0833C21.5833 17.5972 21.413 17.1842 21.0723 16.8443C20.7324 16.5037 20.3194 16.3333 19.8333 16.3333C19.3472 16.3333 18.9342 16.5037 18.5943 16.8443C18.2537 17.1842 18.0833 17.5972 18.0833 18.0833C18.0833 18.5694 18.2537 18.9824 18.5943 19.3223C18.9342 19.663 19.3472 19.8333 19.8333 19.8333ZM19.8333 23.3333C20.4361 23.3333 20.9903 23.1922 21.4958 22.9098C22.0014 22.6283 22.4097 22.2542 22.7208 21.7875C22.2931 21.5347 21.8361 21.3403 21.35 21.2042C20.8639 21.0681 20.3583 21 19.8333 21C19.3083 21 18.8028 21.0681 18.3167 21.2042C17.8306 21.3403 17.3736 21.5347 16.9458 21.7875C17.2569 22.2542 17.6653 22.6283 18.1708 22.9098C18.6764 23.1922 19.2306 23.3333 19.8333 23.3333ZM14 25.6667C11.2972 24.9861 9.06617 23.4352 7.30683 21.014C5.54672 18.5936 4.66667 15.9056 4.66667 12.95V5.83333L14 2.33333L23.3333 5.83333V12.4542C22.9639 12.2986 22.5847 12.1574 22.1958 12.0307C21.8069 11.9047 21.4083 11.8125 21 11.7542V7.46667L14 4.84167L7 7.46667V12.95C7 13.8639 7.12133 14.7778 7.364 15.6917C7.60744 16.6056 7.94811 17.4759 8.386 18.3027C8.82311 19.1287 9.35278 19.8917 9.975 20.5917C10.5972 21.2917 11.2875 21.875 12.0458 22.3417C12.2597 22.9639 12.5417 23.5569 12.8917 24.1208C13.2417 24.6847 13.6403 25.1903 14.0875 25.6375C14.0681 25.6375 14.0537 25.6426 14.0443 25.6527C14.0342 25.662 14.0194 25.6667 14 25.6667ZM19.8333 25.6667C18.2194 25.6667 16.8439 25.0981 15.7068 23.961C14.5689 22.8231 14 21.4472 14 19.8333C14 18.2194 14.5689 16.8436 15.7068 15.7057C16.8439 14.5686 18.2194 14 19.8333 14C21.4472 14 22.8231 14.5686 23.961 15.7057C25.0981 16.8436 25.6667 18.2194 25.6667 19.8333C25.6667 21.4472 25.0981 22.8231 23.961 23.961C22.8231 25.0981 21.4472 25.6667 19.8333 25.6667Z" fill="url(#paint0_linear_43_384)"/>
<defs>
<linearGradient id="paint0_linear_43_384" x1="14" y1="0" x2="14" y2="28" gradientUnits="userSpaceOnUse">
<stop stop-color="#23459A"/>
<stop offset="1" stop-color="#001199"/>
</linearGradient>
</defs>
</svg>
