<svg xmlns="http://www.w3.org/2000/svg" viewBox="0 0 500 500"><g id="freepik--Character--inject-344"><path d="M195.18,399.33C194.66,400.88,210,463,210,463h37.32l1.47-59Z" style="fill:#ae7461"></path><path d="M263,404c.52,3.1,20.26,59,20.26,59l41.71-.06-11.83-63.58Z" style="fill:#ae7461"></path><path d="M203.66,276.42a52.7,52.7,0,0,0-13.22,26.44c-1,5.29-4.68,16.45-4.42,36.69.42,32.87,1.82,80.15,1.82,80.15a1189.21,1189.21,0,0,0,134,0s-24.47-119.39-34.45-134.54l-4.28-10.46Z" style="fill:#263238"></path><path d="M203.66,276.42l1.38-.05,4.09-.12,15.76-.39,58.26-1.35h.13l.05.12,4.28,10.45v0a41,41,0,0,1,3.06,6.57l1.27,3.48c.39,1.18.79,2.37,1.19,3.56,1.55,4.81,3,9.81,4.42,14.95,2.84,10.29,5.56,21.19,8.3,32.57,5.44,22.78,10.9,47.5,16.3,73.46l.06.3h-.3c-8.18.46-16.87.87-25.66,1.18-38.92,1.36-75.85.66-108.42-1.2h-.21v-.22c-.48-21.78-.92-41.87-1.31-59.75q-.15-6.7-.29-13c-.08-4.18-.22-8.22-.13-12.12a126.83,126.83,0,0,1,2.11-21.3c.6-3.18,1.32-6.17,2-9l.9-4.1c.29-1.33.69-2.58,1-3.8A57.16,57.16,0,0,1,197.15,285a52.53,52.53,0,0,1,4.63-6.51,23.06,23.06,0,0,1,1.88-2l-.48.52c-.3.34-.76.85-1.34,1.55a54.16,54.16,0,0,0-4.56,6.54,57,57,0,0,0-5.19,11.7c-.34,1.21-.73,2.46-1,3.78s-.58,2.69-.88,4.1c-.64,2.82-1.36,5.8-1.94,9a126.52,126.52,0,0,0-2,21.25c-.08,3.88.07,7.92.16,12.11s.2,8.51.31,13c.42,17.88.88,38,1.39,59.75l-.22-.23c32.56,1.82,69.47,2.51,108.37,1.15,8.79-.31,17.47-.72,25.65-1.17l-.24.31c-5.39-26-10.84-50.68-16.26-73.45-2.72-11.39-5.44-22.29-8.26-32.57-1.42-5.15-2.85-10.14-4.39-14.94-.4-1.19-.79-2.38-1.18-3.56s-.84-2.32-1.26-3.47a40.64,40.64,0,0,0-3-6.5h0v0c-1.5-3.66-2.95-7.23-4.27-10.46l.18.12L225,276.06l-15.78.3-4.11.06Z" style="fill:#455a64"></path><path d="M258.35,409.9a5.41,5.41,0,0,1-.29-.74l-.72-2.15c-.62-1.88-1.53-4.58-2.69-7.91-2.32-6.66-5.75-15.78-10.05-25.64s-8.68-18.57-12-24.8c-1.65-3.11-3-5.62-4-7.34l-1.09-2a3.9,3.9,0,0,1-.34-.71,5.63,5.63,0,0,1,.43.66c.3.49.69,1.13,1.17,2,1,1.69,2.43,4.17,4.12,7.27,3.4,6.19,7.82,14.89,12.13,24.77s7.69,19,9.93,25.72c1.12,3.35,2,6.07,2.53,8,.26.91.48,1.63.63,2.18A4.23,4.23,0,0,1,258.35,409.9Z" style="fill:#455a64"></path><path d="M260.82,332.08c.13.06-2,5-4.75,11.09S251,354.1,250.85,354s2-5,4.75-11.08S260.69,332,260.82,332.08Z" style="fill:#455a64"></path><path d="M207.75,98.06a23,23,0,0,0-6.5,20.29c.64,3.54,2.05,7.5,0,10.46s-6.53,3.32-8.44,6.32c-2.25,3.53.42,8.16-.09,12.32a8.28,8.28,0,0,1-8.13,7,32.34,32.34,0,0,0,16.67,5.27l3.87-6.19c-1.49,2.18-.71,5.33,1.15,7.21s4.49,2.73,7.07,3.27a41.09,41.09,0,0,0,35.18-9.52" style="fill:#263238"></path><path d="M278,122.6c-1.17-2.64-2.93-5-3.83-7.76-1.91-5.91.33-13-3.17-18.14-2.48-3.66-7.12-5.09-11.46-6s-9-1.49-12.41-4.25c-2.53-2-4.16-5-6.69-7-3.59-2.9-8.53-3.49-13.14-3.3s-9.56,1.15-13.58,3.67-7.13,6.78-7.41,11.52c-.13,2.31.4,4.66-.09,6.92-.54,2.49-2.24,4.55-3.17,6.92a12.17,12.17,0,0,0,4.53,14.19l36.65,38.41c7.06,1.86,23.2-2.94,27.93-8.5S281,129.27,278,122.6Z" style="fill:#263238"></path><path d="M207.87,114c.35-9.61,6.4-21.57,16-20.81L254,99.94a5.64,5.64,0,0,1,5.19,5.58l2.21,70.38s-1.34.68,0,0a.39.39,0,0,1,.53.54c-3,5.43-17.15,29.29-34.83,24.29-4-1.12-1-13.51-1.9-17.89l-.67-11.37c-.22-5.81-.28-8.2-.29-8.15s-12.32-1.71-15.28-17.65C207.43,137.74,207.48,124.68,207.87,114Z" style="fill:#ae7461"></path><path d="M213.49,127.61a2,2,0,0,0,2,2,2,2,0,0,0,2.07-1.9,2.06,2.06,0,0,0-2-2A2,2,0,0,0,213.49,127.61Z" style="fill:#263238"></path><path d="M233.67,128.28a2,2,0,0,0,2,2,2,2,0,0,0,2.07-1.9,2,2,0,0,0-2-2A2,2,0,0,0,233.67,128.28Z" style="fill:#263238"></path><path d="M210.06,121c.26.35,2-1.05,4.43-1s4.1,1.57,4.38,1.24c.14-.15-.11-.77-.85-1.46a5.59,5.59,0,0,0-3.48-1.41,5.51,5.51,0,0,0-3.56,1.18C210.21,120.24,209.93,120.85,210.06,121Z" style="fill:#263238"></path><path d="M231.47,121.29c.32.31,2-1.23,4.6-1.39s4.53,1.1,4.78.75c.13-.16-.2-.74-1.06-1.33a6.24,6.24,0,0,0-3.85-1,6.08,6.08,0,0,0-3.64,1.52C231.55,120.53,231.32,121.15,231.47,121.29Z" style="fill:#263238"></path><path d="M225,137.14a15.42,15.42,0,0,0-3.61-.55c-.56,0-1.1-.14-1.21-.52a2.91,2.91,0,0,1,.34-1.69L222.1,130c2.16-6.17,3.7-11.25,3.45-11.33s-2.2,4.85-4.35,11c-.52,1.52-1,3-1.49,4.36a3.33,3.33,0,0,0-.23,2.23,1.42,1.42,0,0,0,1,.8,3.82,3.82,0,0,0,1,.1A14.32,14.32,0,0,0,225,137.14Z" style="fill:#263238"></path><path d="M224.19,163.32A40.77,40.77,0,0,0,245.48,157s-5.09,11.37-21.15,10.3Z" style="fill:#6f4439"></path><path d="M232.38,142.85a3.45,3.45,0,0,0-1.27-1.22,2.79,2.79,0,0,0-1.91,0,4.52,4.52,0,0,0-2.36,1.52,2.7,2.7,0,0,0-.35,2.69h0c.34.89,1.76,1.25,2.71,1.32a4.2,4.2,0,0,0,2.67-.86,2.39,2.39,0,0,0,1.21-2A2.93,2.93,0,0,0,232.38,142.85Z" style="fill:#6f4439"></path><path d="M231.61,139.81c-.36,0-.3,2.38-2.31,4.14s-4.57,1.56-4.58,1.9c0,.15.58.45,1.66.45a6,6,0,0,0,3.83-1.45,5.24,5.24,0,0,0,1.78-3.47C232.05,140.38,231.77,139.79,231.61,139.81Z" style="fill:#263238"></path><path d="M231,115.35c.23.6,2.43.25,5,.5s4.71.89,5,.34c.15-.26-.23-.81-1.09-1.37a8.33,8.33,0,0,0-3.76-1.21,8.54,8.54,0,0,0-3.92.56C231.32,114.58,230.86,115.07,231,115.35Z" style="fill:#263238"></path><path d="M211.41,112c.46.49,2.18-.08,4.27-.16s3.87.24,4.27-.3c.17-.26-.12-.75-.91-1.21a6.93,6.93,0,0,0-6.88.37C211.44,111.18,211.21,111.71,211.41,112Z" style="fill:#263238"></path><path d="M260.61,101.56c-1.7-2.1-4.45-3-7.06-3.7A147.34,147.34,0,0,0,219,92.77c-1.19,2.51.47,5.59,2.81,7.09s5.19,1.88,7.88,2.58,5.5,1.92,6.83,4.36c1.41,2.59.79,5.9,2.07,8.57,2.21,4.58,9,5.42,11.19,10,1.65,3.48,0,7.53-.17,11.37a13.74,13.74,0,0,0,15,14.17q-.94-20.59-1.88-41.2C262.62,106.86,262.41,103.79,260.61,101.56Z" style="fill:#263238"></path><path d="M291.69,133.2c-2.36-1.71-5.23-3.1-6.38-5.78-1.67-3.89,1.08-9-1.39-12.41-2.24-3.15-7.82-2.4-9.94-5.64-1.66-2.52-.32-5.05-1.08-7.34s-4.31-4-6.67-3.47l-15.84,29c-.79,9.24-2,14.25.46,19.35,1.37,2.8,3.05,5.49,3.79,8.52s.31,6.58-2,8.66c11.24-.28,21.08-7.2,30.15-13.84l9.6-7a7.49,7.49,0,0,0,2.56-2.63C296.18,137.91,294,134.91,291.69,133.2Z" style="fill:#263238"></path><path d="M282.77,147.44a5.17,5.17,0,0,1-1.16.35,10.43,10.43,0,0,1-3.5.12A10.85,10.85,0,0,1,273,145.8a10.63,10.63,0,0,1-3.87-6.19,10.92,10.92,0,0,1-.07-4.31,17.39,17.39,0,0,1,1.64-4.36,16.38,16.38,0,0,0,1.69-4.52,5.55,5.55,0,0,0-1.09-4.66c-1.15-1.25-3.07-1.39-4.89-1.91a5.14,5.14,0,0,1-2.56-1.52,5,5,0,0,1-1.07-2.84c-.19-2,.49-4,.67-5.94a6.5,6.5,0,0,0-.28-2.85,4,4,0,0,0-1.84-2.09c-1.73-1-3.8-1-5.8-.92a12.14,12.14,0,0,1-5.92-1.1,10.81,10.81,0,0,1-4.37-3.85,18,18,0,0,1-2-5.2,25,25,0,0,0-1.61-4.89,11.15,11.15,0,0,0-3-3.68,12.56,12.56,0,0,0-14.83-.54,15.17,15.17,0,0,0-3.95,3.71,19.93,19.93,0,0,0-2.26,4.08.92.92,0,0,1,.07-.3c.07-.2.15-.49.31-.86A14.28,14.28,0,0,1,219.6,88a15.39,15.39,0,0,1,4-3.87,13.13,13.13,0,0,1,6.95-2.31,13.35,13.35,0,0,1,8.41,2.73,11.53,11.53,0,0,1,3.21,3.85,25.36,25.36,0,0,1,1.69,5,17.2,17.2,0,0,0,1.94,5,10.27,10.27,0,0,0,4.13,3.61,11.49,11.49,0,0,0,5.64,1c2,0,4.18-.09,6.12,1a4.65,4.65,0,0,1,2.13,2.43,6.91,6.91,0,0,1,.31,3.14c-.2,2-.85,4-.67,5.82a4.36,4.36,0,0,0,.91,2.49,4.55,4.55,0,0,0,2.26,1.33c.87.26,1.79.41,2.69.69a5.27,5.27,0,0,1,2.46,1.41,6.12,6.12,0,0,1,1.21,5.16,16.7,16.7,0,0,1-1.77,4.67,17.47,17.47,0,0,0-1.63,4.22,10.56,10.56,0,0,0,0,4.12,10.27,10.27,0,0,0,3.63,6,10.52,10.52,0,0,0,4.93,2.14A12.15,12.15,0,0,0,282.77,147.44Z" style="fill:#455a64"></path><path d="M295.65,126.69a2.29,2.29,0,0,1,.47.87,4,4,0,0,1-.2,2.82,4.11,4.11,0,0,1-1.27,1.64,4.48,4.48,0,0,1-2.31.89,5.6,5.6,0,0,1-5.21-2.6A7.51,7.51,0,0,1,286,127a10.36,10.36,0,0,1,.4-3.77c.63-2.5,2-5,1.74-7.84a5.16,5.16,0,0,0-1.69-3.7,5.7,5.7,0,0,0-4.18-.85,13.56,13.56,0,0,1-4.88,0,4.23,4.23,0,0,1-2.16-1.46,6,6,0,0,1-1.07-2.38,20,20,0,0,1-.11-5,11.1,11.1,0,0,0-.73-4.56,11.68,11.68,0,0,0-5.9-6.27c-2.56-1.21-5.37-1.08-7.91-1a22.74,22.74,0,0,1-7.17-.38A15,15,0,0,1,243.91,84a10.75,10.75,0,0,1-1.69-3.4,20,20,0,0,0,1.9,3.25,15.09,15.09,0,0,0,8.32,5.55,22.75,22.75,0,0,0,7,.29c2.54-.13,5.45-.3,8.19,1a12.21,12.21,0,0,1,6.24,6.58,11.59,11.59,0,0,1,.79,4.82,19.53,19.53,0,0,0,.1,4.84,4.17,4.17,0,0,0,2.77,3.36,13.64,13.64,0,0,0,4.64,0,6.22,6.22,0,0,1,4.63,1,5.75,5.75,0,0,1,1.9,4.14,11.12,11.12,0,0,1-.59,4.26c-.41,1.32-.89,2.55-1.23,3.77a10,10,0,0,0-.42,3.58,7.17,7.17,0,0,0,1,3.11,5.21,5.21,0,0,0,4.79,2.48,4.21,4.21,0,0,0,2.16-.76,4.1,4.1,0,0,0,1.22-1.51,4,4,0,0,0,.3-2.67A8.52,8.52,0,0,0,295.65,126.69Z" style="fill:#263238"></path><path d="M178.86,145.52a4.5,4.5,0,0,0,.34,2.91,3.87,3.87,0,0,0,2.56,2.11,4.07,4.07,0,0,0,4-1.54,3.76,3.76,0,0,0,.72-2.44,8.06,8.06,0,0,0-.72-2.78c-.79-1.82-2.21-3.75-2.28-6.23a9,9,0,0,1,2.72-6.79,10.58,10.58,0,0,1,3.29-2.19,15.06,15.06,0,0,1,3.91-1,20.74,20.74,0,0,0,3.81-.81,5.13,5.13,0,0,0,2.81-2.17,6.32,6.32,0,0,0,.74-3.41,12.94,12.94,0,0,0-.64-3.41c-.69-2.18-1.58-4.28-1.68-6.42a9.9,9.9,0,0,1,1.43-5.62,12.59,12.59,0,0,1,3.32-3.44,24.08,24.08,0,0,0,2.69-2.31,7.63,7.63,0,0,0,1.59-2.54s0,.07,0,.2a3.23,3.23,0,0,1-.17.57,6.1,6.1,0,0,1-1.2,1.94,22.81,22.81,0,0,1-2.65,2.42,12.51,12.51,0,0,0-3.15,3.4,9.56,9.56,0,0,0-1.29,5.35c.11,2,1,4,1.71,6.27a12.92,12.92,0,0,1,.69,3.57,6.87,6.87,0,0,1-.81,3.75,5.78,5.78,0,0,1-3.14,2.46,21.52,21.52,0,0,1-3.93.84,15.24,15.24,0,0,0-3.76.94,10,10,0,0,0-3.09,2,8.45,8.45,0,0,0-2.57,6.32c0,2.27,1.36,4.12,2.17,6a8.15,8.15,0,0,1,.73,3,4.23,4.23,0,0,1-.85,2.73,4.45,4.45,0,0,1-4.43,1.61,4.11,4.11,0,0,1-2.71-2.35,4.2,4.2,0,0,1-.34-2.26A2.48,2.48,0,0,1,178.86,145.52Z" style="fill:#263238"></path><path d="M284.83,175.08l-23.33-4.64s-9.57,13.87-24.48,12.67c-8.7-.7-12.38-9-12.38-9l-24.57,6.92-.35,49.72,5.62,27-14.9,45s39.94,25.4,104.68-.77L283.81,274.7l3.07-16.16s4.1-30.51,2.48-40-4.58-20.69-4.58-20.69Z" style="fill:#EE1122"></path><path d="M220,253.75a9.08,9.08,0,0,0,1.56,1.17c1,.71,2.56,1.68,4.5,2.8A91.76,91.76,0,0,0,259,269c2.22.29,4,.47,5.28.53a9.73,9.73,0,0,0,1.95,0,10.47,10.47,0,0,0-1.92-.32c-1.24-.15-3-.4-5.23-.76a108.4,108.4,0,0,1-16.86-4.22,107.21,107.21,0,0,1-15.93-7c-2-1.06-3.53-1.95-4.61-2.59A10,10,0,0,0,220,253.75Z" style="fill:#263238"></path><g style="opacity:0.30000000000000004"><path d="M199.23,276.3a9.7,9.7,0,0,0,9.38-3.5c2-2.69,2.91-6,3.75-9.28q2.91-11.17,5.8-22.36a55.4,55.4,0,0,1,36.93-6.11,12.73,12.73,0,0,1,5.41,2c2.14,1.63,3.16,4.31,4.06,6.84,2.18,6.17,4.28,12.47,8.05,17.81s5.31,9.28,11.84,9.62l5.46-26.28L271.37,221.8l-46.69,1.62-17,11.07L201.89,268Z"></path></g><path d="M282.11,175s10.84-1.2,18.15,11.85c5.37,9.58,12.13,28.78,12.13,28.78l-25.73,7.15-5.56-25.12Z" style="fill:#EE1122"></path><path d="M200.07,181.08s-7.91,1.44-12.36,8.08-12.24,30-12.24,30l27,2.93,2.51-26.8Z" style="fill:#EE1122"></path><path d="M289.25,201.16a14.77,14.77,0,0,0-.64,3.25c-.36,2.3-.77,5-1.22,7.87s-.92,5.57-1.3,7.87a16,16,0,0,0-.41,3.29,14.07,14.07,0,0,0,.93-3.19c.46-2,1-4.76,1.52-7.85s.82-5.89,1-7.93A14.73,14.73,0,0,0,289.25,201.16Z" style="fill:#263238"></path><path d="M201.32,201.35c-.2,0-.63,5.7-.94,12.76s-.41,12.78-.21,12.78.63-5.7,1-12.75S201.53,201.36,201.32,201.35Z" style="fill:#263238"></path><path d="M249.83,176l4.86,38.52a2.47,2.47,0,0,1-2.14,2.7l-24.67,3.53a2.49,2.49,0,0,1-2.85-2l-6.49-40.19a2.44,2.44,0,0,1,2.3-2.79l26.31-1.88A2.49,2.49,0,0,1,249.83,176Z" style="fill:#263238"></path><path d="M239.35,197.06c.67,0,15.44,1.95,15.44,1.95L276,208.7l10.65,14L277,241.82l-6.29-15.89a26.92,26.92,0,0,1-9.45,1.69c-4.49-.23-18.7-.7-18.7-.7l-7.46-3.6s-2.5-3.59-2.54-4.62a1.66,1.66,0,0,1,2.5-1.54c1.52.76,11.76.55,14.27-.58,0,0-14.95-.43-17-2.7s-1.44-4.15.9-4.25,10.92.8,13.46.49,5.75-.44,6.34-1.7-1.37-2.2-1.37-2.2l-2.85-1.94s-10.95-1.41-11.68-3.64A2.65,2.65,0,0,1,239.35,197.06Z" style="fill:#ae7461"></path><path d="M234.34,196.54S222,199,221.2,199.78s-15.7,19.93-15.7,19.93l-3.67,3.65,10.35,12.41,1.94-1.24,13.73-7.89a23.83,23.83,0,0,1,4.41-1.57s14.08-2.72,14.93-4.4.31-2-.75-2.24-9.5,1.06-11.37,1.47a29.94,29.94,0,0,1-5.64.23s5.83-1.56,7.14-2.06,14.37-3.87,14.07-6.13-2-3-10.14-.55a60.89,60.89,0,0,1-13.81,2.72l18-6.86s7.26-2.57,4.81-4.5-18,2.88-18,2.88l-6.85,2.81,1.8-4.12s9.78-3.22,11-4.23c1.52-1.24,1.69-2.34.47-3.26S234.34,196.54,234.34,196.54Z" style="fill:#ae7461"></path><path d="M177.79,219.43l22,2.42,0,5,3.22-4.67,9.15,13.6s-2.7,9.64-4.15,15C204.17,265,197.59,281,188.72,280.59c-10.65-.53-16.22-11.37-16.35-19.21C172.25,254.25,177.79,219.43,177.79,219.43Z" style="fill:#ae7461"></path><path d="M310.87,216l-18.54,5.31-5.67,1.42-5.5-7.31-7.84,16.35s3.44,9.4,5.3,14.6c5,13.91,12.78,29.4,21.59,28.26,10.57-1.36,17.85-13.77,17.37-21.6C317.14,245.92,310.87,216,310.87,216Z" style="fill:#ae7461"></path><path d="M205.49,219.65s.12-.19.4-.55l1.21-1.6c1.1-1.41,2.69-3.47,4.72-6.1l7.51-9.58,1.13-1.41.59-.73a2.84,2.84,0,0,1,.92-.46c1.24-.41,2.53-.72,3.87-1,2.67-.64,5.5-1.24,8.48-1.84h0a6.85,6.85,0,0,1,2.31-.2,3.28,3.28,0,0,1,1.17.34,2.68,2.68,0,0,1,.9.84,1.49,1.49,0,0,1,.18,1.25,3,3,0,0,1-.65,1.06,4.48,4.48,0,0,1-1,.81c-.36.2-.74.37-1.11.54-3,1.28-6.28,2.38-9.64,3.51l.14-.12-1.81,4.12-.3-.29,6.85-2.81h0c2.95-.89,6-1.71,9.15-2.39a46.78,46.78,0,0,1,4.83-.83,17.33,17.33,0,0,1,2.51-.1,4.27,4.27,0,0,1,1.29.25,1.68,1.68,0,0,1,1,1,1.42,1.42,0,0,1-.38,1.34,5.3,5.3,0,0,1-1,.86,15.27,15.27,0,0,1-2.24,1.23c-1.56.71-3.18,1.25-4.78,1.88l-9.74,3.7-5.3,2-.1-.47a63,63,0,0,0,12.81-2.41,60.9,60.9,0,0,1,6.18-1.59,9.53,9.53,0,0,1,3.2-.13,2.38,2.38,0,0,1,1.47.79,2.74,2.74,0,0,1,.55,1.52,1.21,1.21,0,0,1-.37.81,3.8,3.8,0,0,1-.61.53,10.5,10.5,0,0,1-1.33.78c-.91.46-1.84.83-2.77,1.19-1.87.7-3.74,1.3-5.59,1.86l-2.75.82c-.89.26-1.79.6-2.69.84-1.79.52-3.56,1-5.3,1.46l0-.41a24.94,24.94,0,0,0,6.14-.32c2-.36,4-.65,5.89-.91,1-.12,1.91-.24,2.85-.33.47-.05.94-.09,1.41-.11a3.82,3.82,0,0,1,.75,0,3.27,3.27,0,0,1,.7.21,1,1,0,0,1,.56.56,1.36,1.36,0,0,1,0,.75,3.58,3.58,0,0,1-.23.65l-.14.3a1.17,1.17,0,0,1-.24.3,8.4,8.4,0,0,1-2.42,1.16,90.4,90.4,0,0,1-9.37,2.39l-2.15.44a15.69,15.69,0,0,0-2,.49,15,15,0,0,0-3.59,1.41l-9.94,5.62L215,234l-.67.37-.24.12a1,1,0,0,1,.22-.15l.66-.4,2.6-1.52c2.29-1.33,5.63-3.27,9.88-5.72,2.16-1.27,4.92-1.83,7.83-2.42a93.41,93.41,0,0,0,9.31-2.43,8.15,8.15,0,0,0,2.28-1.09.64.64,0,0,0,.16-.2l.13-.29a4,4,0,0,0,.21-.58.68.68,0,0,0-.36-.9,3.62,3.62,0,0,0-.61-.18c-.2,0-.42,0-.65,0l-1.39.12c-.93.09-1.88.21-2.83.34-1.91.26-3.88.56-5.87.92a25,25,0,0,1-6.25.34.21.21,0,0,1-.21-.22.22.22,0,0,1,.16-.2h0q2.61-.69,5.29-1.47c.9-.24,1.76-.57,2.68-.85l2.75-.82c1.84-.56,3.7-1.16,5.55-1.86.92-.35,1.84-.73,2.73-1.17a9.31,9.31,0,0,0,1.26-.75c.37-.27.79-.63.78-1a2.27,2.27,0,0,0-.44-1.23,1.88,1.88,0,0,0-1.18-.61,9.08,9.08,0,0,0-3,.13,58.21,58.21,0,0,0-6.13,1.59,63.45,63.45,0,0,1-12.93,2.43.25.25,0,0,1-.27-.23.24.24,0,0,1,.16-.24h0l5.29-2,9.75-3.7c1.6-.63,3.23-1.17,4.74-1.85a14.68,14.68,0,0,0,2.17-1.2,5,5,0,0,0,.88-.76,1,1,0,0,0,.29-.9c-.23-.62-1.07-.84-1.86-.87a15.13,15.13,0,0,0-2.42.1,47.2,47.2,0,0,0-4.78.81c-3.13.67-6.17,1.49-9.1,2.36h0l-6.86,2.79a.23.23,0,0,1-.3-.11.23.23,0,0,1,0-.18l1.81-4.11a.24.24,0,0,1,.14-.12c3.35-1.12,6.6-2.21,9.6-3.47a12,12,0,0,0,1.08-.52,4.17,4.17,0,0,0,.86-.72c.52-.54.84-1.27.43-1.84a2.26,2.26,0,0,0-1.77-1,6.44,6.44,0,0,0-2.15.18h0c-3,.59-5.81,1.18-8.47,1.79-1.33.32-2.63.63-3.84,1a2.76,2.76,0,0,0-.79.37l-.58.71-1.14,1.4c-2.94,3.71-5.49,6.9-7.57,9.53s-3.69,4.64-4.81,6l-1.26,1.57C205.65,219.48,205.49,219.65,205.49,219.65Z" style="fill:#6f4439"></path><path d="M202.4,223.07c.15.11-6,8.13-13.74,17.92s-14.15,17.63-14.3,17.51,6-8.13,13.75-17.91S202.25,223,202.4,223.07Z" style="fill:#6f4439"></path><path d="M305.48,247.28c-.11,0-.91-1.68-2.54-4.28a90.41,90.41,0,0,0-7.18-9.65c-3-3.61-5.92-6.78-7.92-9.15-1-1.18-1.79-2.16-2.32-2.85a4.89,4.89,0,0,1-.75-1.11,5.85,5.85,0,0,1,1,1l2.47,2.71c2.09,2.3,5,5.42,8.07,9.05a70.87,70.87,0,0,1,7.08,9.81A34.49,34.49,0,0,1,305,246,5.39,5.39,0,0,1,305.48,247.28Z" style="fill:#6f4439"></path></g></svg>
